# xmcd
#
# Track frame offsets:
#	150
#	17794
#	29967
#	42992
#	54959
#	68636
#	82701
#	96272
#	112746
#	129167
#	149524
#	169164
#	188380
#	205435
#	219360
#	239453
#	259810
#	275013
#	288915
#	301080
#	316130
#	334487
#
# Disc length: 4678 seconds
#
# Revision: 1
# Processed by: cddbd v1.5.2PL0 Copyright (c) Steve Scherf et al.
# Submitted via: audiograbber 1.83.01
#
DISCID=3a124416
DTITLE=Diamond Back Of Texas - Diamond Back Of Texas 009
DYEAR=2006
DGENRE=Country
TTITLE0=J.B. Smith - Phone Call To Jesus
TTITLE1=Bruce Greaves - I've Been Around Enough To Know
TTITLE2=William Ray - Twenty Four Seven
TTITLE3=Ray Sanders - She's Not Getting It At Home
TTITLE4=Leon Turner - My Heart Has Got The Best Of Me
TTITLE5=William Ray - Today I Leave This Prison Walls
TTITLE6=Ronnie Kimball - Something I Left Behind
TTITLE7=Mitch Snow - Good Friends
TTITLE8=Chris Anderson - Takin' The Fifth
TTITLE9=Michael Lusk - Tell Me
TTITLE10=Captain 'T' (John Hunnicut) - A Cowboy Ain't Nothing
TTITLE11=Suzie Merwine - Like The Footprints In The Sand
TTITLE12=Mak Kaylor - That's My Prayer
TTITLE13=Unknown Artist - She Said There's A Devil
TTITLE14=Gaylon Embrey - Little Angel Faces
TTITLE15=Michael Lusk - Lie To Me
TTITLE16=Bruce Greaves - Almost Home
TTITLE17=Marilyn McConnell - Half A World Away
TTITLE18=Phil Coley - Should Of Used My Head
TTITLE19=Brian Glenn - I Love You So
TTITLE20=Stan Lawhon - The Wildflower Waltz
TTITLE21=Unknown Artist - Not Made Of Stone
EXTD=
EXTT0=
EXTT1=
EXTT2=
EXTT3=
EXTT4=
EXTT5=
EXTT6=
EXTT7=
EXTT8=
EXTT9=
EXTT10=
EXTT11=
EXTT12=
EXTT13=
EXTT14=
EXTT15=
EXTT16=
EXTT17=
EXTT18=
EXTT19=
EXTT20=
EXTT21=
PLAYORDER=
